<?xml version="1.0" encoding="utf-8" ?><svg xmlns="http://www.w3.org/2000/svg" xmlns:xlink="http://www.w3.org/1999/xlink" width="1024" height="1024" viewBox="0 0 1024 1024"><path fill="#1D1D1D" d="M479.599 85.0794C480.614 85.016 481.63 84.9632 482.647 84.9212C487.761 84.7179 492.892 85.5642 497.352 88.2223C503.49 91.8803 509.179 99.4634 514.244 104.604L546.226 136.941C551.594 142.366 556.765 148.151 562.395 153.29L562.824 153.676C563.98 152.434 565.185 151.238 566.437 150.092C572.136 144.888 578.336 141.395 586.334 141.897C588.674 142.044 591.17 142.359 593.254 143.502C600.651 147.555 626.41 174.305 633.083 181.747C637.289 186.437 639.789 191.922 639.293 198.332C638.604 207.219 632.196 212.03 626.07 217.482C635.942 226.001 646.335 237.576 655.746 247C662.917 254.181 676.684 266.478 681.907 274.029C684.072 277.159 685.566 281.609 685.904 285.423C686.484 291.965 682.853 298.892 678.617 303.687C668.979 314.596 658.008 324.677 647.802 335.077L626.064 357.112C620.697 362.507 615.334 368.482 608.984 372.727C605.745 374.891 601.735 376.014 597.866 376.199C593.966 376.385 589.974 375.762 586.581 373.76C578.51 368.998 571.713 360.643 565.123 354.033L539.38 328.356C533.378 322.356 527.561 316.184 521.204 310.551C517.504 315.387 512.27 319.706 507.929 324.034L483.123 348.946L406.75 425.584L350.165 482.616C343.081 489.753 332.995 501.707 324.998 507.094C321.509 509.445 316.946 510.902 312.776 511.08C306.205 511.361 301.058 508.202 296.398 503.9C289.418 497.457 272.588 481.246 268.121 473.762C266.175 470.502 264.926 466.835 264.892 463.013C264.848 458.105 266.867 453.25 269.803 449.407C275.014 442.587 282.126 436.455 288.224 430.401L320.514 398.121L424.376 294.04C437.915 280.429 451.796 267.116 465.032 253.211L420.927 209.589C413.978 202.653 406.249 195.796 400.064 188.207C398.166 185.878 396.613 183.51 395.74 180.603C393.864 174.355 394.762 166.737 398.111 161.113C402.703 153.404 410.73 147.315 417.088 141.06L446.643 111.819C453.483 105.041 460.149 96.8811 467.659 90.9361C471.449 87.9358 474.937 86.3158 479.599 85.0794Z"/><path fill="#1D1D1D" d="M407.015 540.997C406.109 531.917 405.324 505.961 408.354 497.623C409.419 494.694 411.413 493.037 414.216 491.766C419.971 489.157 446.356 488.9 452.439 491.204C455.208 492.253 458.377 494.369 459.324 497.34C461.233 503.325 460.024 520.409 459.997 527.786L459.989 607.396C460.009 619.533 459.185 632.205 460.016 644.276C460.21 647.103 460.763 649.94 461.961 652.525C463.943 656.8 468.32 660.493 472.768 661.985C475.194 662.799 477.875 662.933 480.418 663.006C496.977 663.482 513.672 663.06 530.243 663.05L624.912 663.034L668.548 663.039C676.521 663.04 685.816 664.017 693.567 662.309C702.653 660.307 710.334 650.918 718.627 646.684L719.23 646.383C724.906 651.23 730.694 656.54 736.784 660.842L737.12 661.846C736.938 661.966 736.755 662.084 736.574 662.207C732.329 665.079 728.352 669.281 724.499 672.695C705.897 689.183 688.313 708.114 683.828 733.508C680.439 752.7 685.525 771.407 696.656 787.207C707.204 802.18 721.445 814.788 737.217 824.037C746.539 829.503 767.23 836.329 772.803 844.177C774.684 846.825 775.79 850.009 776.298 853.197C777.077 858.087 777.161 892.531 776.395 897.842C775.834 901.735 773.939 905.2 770.688 907.472C768.025 909.333 764.792 910.24 761.583 910.515C755.338 911.051 748.839 910.595 742.566 910.554L711.957 910.571L672.486 910.6C665.682 910.598 657.894 911.308 651.219 910.009C647.444 909.275 644.08 906.326 642.028 903.173C637.803 896.68 638.574 885.223 636.959 877.665C630.192 845.992 603.064 820.547 572.019 812.837C560.763 810.042 549.654 810.016 538.156 810.001C513.383 809.969 497.044 809.816 474.877 823.265C455.397 835.084 439.946 853.974 434.625 876.403C432.116 886.982 434.796 901.963 424.184 908.314C421.6 909.86 418.825 910.19 415.876 910.391C407.436 910.964 398.736 910.572 390.268 910.574L342.767 910.566C334.595 910.562 305.414 911.537 299.688 910.091C295.817 909.112 292.663 906.792 290.647 903.335C286.373 896.005 287.973 884.272 288.096 875.953C287.84 870.469 288.051 864.884 288.072 859.39C287.936 851.313 290.137 844.921 296.88 839.998C303.116 835.444 314.628 833.58 322.23 831.135C349.31 822.424 379.038 807.49 398.064 785.917C408.86 773.676 416.572 758.994 415.445 742.242C414.604 729.757 406.987 719.191 396.652 712.561C383.688 704.243 360.493 700.072 345.212 695.053C293.257 677.986 244.226 654.329 202.766 618.108C186.951 604.291 160.684 580.107 159.587 558.214C159.356 553.599 160.482 548.702 163.838 545.336C166.553 542.613 170.302 541.456 174.036 541.046C181.294 540.247 189.246 541.048 196.587 541.073L244.395 541.053L407.015 540.997Z"/><path fill="#0D0E0D" d="M288.072 859.39L289.109 859.679C290.128 865.446 290.168 874.696 289.132 880.466L288.823 880.573C288.461 879.023 288.249 877.537 288.096 875.953C287.84 870.469 288.051 864.884 288.072 859.39Z"/><path fill="#13A6DD" d="M829.123 294.082C834.816 293.864 840.715 294.791 845.231 298.561C849.285 301.945 851.362 307.273 851.709 312.447C852.282 320.994 848.371 337.752 846.828 346.959L835.29 415.51L810.014 565.109C807.561 580.171 805.004 595.217 802.342 610.244C801.113 617.612 800.218 625.099 798.734 632.417C797.864 636.703 796.719 640.429 793.762 643.786C789.969 648.091 784.536 650.933 778.783 651.246C774.716 651.467 770.296 650.59 766.691 648.671C758.72 644.426 751.182 638.26 743.917 632.916L707.479 605.943L677.759 584.087C672.795 580.414 667.512 576.964 662.935 572.81C656.429 582.451 649.626 591.931 643.038 601.524C637.927 608.965 633.008 617.079 626.99 623.804C625.159 625.85 622.984 628.278 620.188 628.835C618.001 629.27 616.108 628.639 614.312 627.386C612.417 626.063 610.937 624.095 610.625 621.759C609.904 616.358 630.074 548.812 633.792 544.359C645.892 529.866 659.281 516.355 671.92 502.315C696.106 475.397 720.081 448.29 743.844 420.998C752.962 410.777 761.999 400.483 770.953 390.117C773.686 386.905 776.891 383.868 779.323 380.425C780.49 378.774 781.741 376.833 781.293 374.723C780.969 373.196 779.788 371.322 778.281 370.687C776.404 369.896 774.623 370.537 773.013 371.595C767.433 375.264 762.179 380.413 756.976 384.658L721.537 413.638L638.316 481.148C629.578 488.333 599.667 514.523 591.942 516.744C588.402 517.761 584.463 517.547 580.871 516.908C566.862 514.416 550.556 508.39 536.713 504.284C527.179 501.456 499.947 494.614 492.459 490.243C488.74 488.041 486.033 484.468 484.92 480.292C483.745 475.71 484.793 470.672 487.275 466.699C489.52 463.106 492.737 460.729 496.403 458.741C514.863 448.735 534.213 439.847 553.023 430.473L680.763 366.891C715.109 349.426 749.575 332.197 784.158 315.206C794.639 310.002 819.378 296.121 829.123 294.082Z"/><path fill="#1D1D1D" d="M840.986 541.108C849.976 541 873.312 539.737 880.856 541.794C883.039 542.39 884.877 543.705 886.513 545.243C891.898 550.306 891.037 558.348 891.038 565.086C891.038 573.797 892.258 594.485 889.906 601.848C888.769 605.408 886.467 608.728 883.802 611.317C874.919 619.948 862.885 619.093 851.457 619.07L831.243 619.002L830.418 619.114C830.179 618.329 830.152 617.61 830.089 616.796C833.71 594.108 835.72 571.141 839.673 548.509C839.869 546.653 839.984 544.792 840.111 542.931L840.986 541.108Z"/><path fill="#0D0E0D" d="M839.673 548.509C841.745 551.652 831.24 608.947 831.243 619.002L830.418 619.114C830.179 618.329 830.152 617.61 830.089 616.796C833.71 594.108 835.72 571.141 839.673 548.509Z"/></svg>